# xmcd CD database file
#
# Track frame offsets:
#	150
#	20592
#	40262
#	53535
#	73465
#	86980
#	101102
#	112939
#	127037
#	137507
#	163070
#	178015
#	193793
#	212322
#	242786
#	254374
#	267270
#	284915
#
# Disc length: 4082 seconds
#
# Revision: 0
# Processed by: cddbd v1.5.2PL0 Copyright (c) Steve Scherf et al.
# Submitted via: CD2WAV32(JP) R3.22
#
DISCID=160ff012
DTITLE=上田正樹と有山淳司 - ぼちぼちいこか
DYEAR=1975
DGENRE=JPop
TTITLE0=大阪へ出て来てから
TTITLE1=可愛い女と呼ばれたい
TTITLE2=あこがれの北新地
TTITLE3=Come on おばはん
TTITLE4=みんなの願いはただひとつ
TTITLE5=雨の降る夜に
TTITLE6=梅田からナンバまで
TTITLE7=とったらあかん
TTITLE8=俺の借金全部でなんぼや
TTITLE9=俺の家には朝がない
TTITLE10=買い物にでも行きまへんか
TTITLE11=なつかしの道頓堀
TTITLE12=バッド・ジャンキー・ブルース
TTITLE13=ほんとのいやになるぜ
TTITLE14=負けると知りつつバクチをしたよ
TTITLE15=Get you when I want you
TTITLE16=Licking Stick
TTITLE17=Funky Broadway
EXTD=
EXTT0=
EXTT1=
EXTT2=
EXTT3=
EXTT4=
EXTT5=
EXTT6=
EXTT7=
EXTT8=
EXTT9=
EXTT10=
EXTT11=
EXTT12=
EXTT13=
EXTT14=
EXTT15=
EXTT16=
EXTT17=
PLAYORDER=
